STARTFONT 2.1
COMMENT  (c) Copyright Bigelow & Holmes 1986, 1985. Lucida is a registered
COMMENT  trademark of Bigelow & Holmes. See LEGAL NOTICE file for terms 
COMMENT  of the license. 
FONT -B&H-Lucida-Bold-R-Normal-Sans-26-190-100-100-P-166-ISO8859-1
SIZE 19 100 100
FONTBOUNDINGBOX 51 29 -17 -5
STARTPROPERTIES 19
COMMENT Begin LogicalFontDescription
FONTNAME_REGISTRY ""
FOUNDRY "B&H"
FAMILY_NAME "Lucida"
WEIGHT_NAME "Bold"
SLANT "R"
SETWIDTH_NAME "Normal"
ADD_STYLE_NAME "Sans"
PIXEL_SIZE 26
POINT_SIZE 190
RESOLUTION_X 100
RESOLUTION_Y 100
SPACING "P"
AVERAGE_WIDTH "166"
CHARSET_REGISTRY "ISO8859"
CHARSET_ENCODING "1"
COMMENT END LogicalFontDescription
COPYRIGHT "Copyright Bigelow & Holmes 1986, 1985."
FONT_ASCENT 24
FONT_DESCENT 6
DEFAULT_CHAR 32
ENDPROPERTIES
CHARS 228
STARTCHAR space
ENCODING 32
SWIDTH 42 0
DWIDTH 9 0
BBX 1 1 0 0
BITMAP
00
ENDCHAR
STARTCHAR exclam
ENCODING 33
SWIDTH 42 0
DWIDTH 9 0
BBX 5 19 2 0
BITMAP
F8
F8
F8
F8
F8
F8
F8
F8
F8
70
70
70
70
00
00
00
F8
F8
F8
ENDCHAR
STARTCHAR quotedbl
ENCODING 34
SWIDTH 42 0
DWIDTH 14 0
BBX 12 9 1 11
BITMAP
F9F0
F9F0
F9F0
F9F0
F9F0
70E0
70E0
70E0
70E0
ENDCHAR
STARTCHAR numbersign
ENCODING 35
SWIDTH 42 0
DWIDTH 18 0
BBX 16 19 1 0
BITMAP
038C
030C
0318
0318
0618
3FFF
7FFF
0630
0C30
0C30
0C60
FFFE
FFFC
1860
18C0
18C0
30C0
30C0
31C0
ENDCHAR
STARTCHAR dollar
ENCODING 36
SWIDTH 42 0
DWIDTH 18 0
BBX 13 25 2 -3
BITMAP
0700
0700
0700
1FF0
3FF0
7FF0
7B10
7B00
7B00
7F00
7F00
3F80
1FE0
07F0
07F0
07F8
0678
0678
C678
FFF0
FFF0
7FC0
0700
0700
0700
ENDCHAR
STARTCHAR percent
ENCODING 37
SWIDTH 42 0
DWIDTH 23 0
BBX 22 19 1 0
BITMAP
3E00F0
7F01E0
7F01C0
E78380
E38780
E38F00
E79E00
7F1C00
7F3C00
3E7800
00F1F0
00E3F8
01E7FC
03C71C
07871C
07071C
0F07FC
1E03F8
3C01F0
ENDCHAR
STARTCHAR ampersand
ENCODING 38
SWIDTH 42 0
DWIDTH 21 0
BBX 19 19 1 0
BITMAP
03F000
0FFC00
1FFE00
1F1E00
1F1E00
1FBE00
0FFC00
07F000
1FE1E0
3FF1E0
7DF1E0
F9F9C0
F8FFC0
F8FF80
FC7F80
7C3F00
7FFF00
3FFF80
0FC7C0
ENDCHAR
STARTCHAR quoteright
ENCODING 39
SWIDTH 42 0
DWIDTH 7 0
BBX 5 9 1 11
BITMAP
F8
F8
F8
F8
F8
38
30
F0
C0
ENDCHAR
STARTCHAR parenleft
ENCODING 40
SWIDTH 42 0
DWIDTH 10 0
BBX 8 25 1 -5
BITMAP
01
07
0F
1F
1E
3C
7C
7C
78
F8
F8
F8
F8
F8
F8
F8
78
7C
7C
3C
1E
1F
0F
07
01
ENDCHAR
STARTCHAR parenright
ENCODING 41
SWIDTH 42 0
DWIDTH 10 0
BBX 8 25 1 -5
BITMAP
80
E0
F0
F8
78
3C
3E
3E
1E
1F
1F
1F
1F
1F
1F
1F
1E
3E
3E
3C
78
F8
F0
E0
80
ENDCHAR
STARTCHAR asterisk
ENCODING 42
SWIDTH 42 0
DWIDTH 12 0
BBX 10 10 1 9
BITMAP
1E00
0C00
4C80
7F80
F3C0
0000
3F00
7780
3300
1200
ENDCHAR
STARTCHAR plus
ENCODING 43
SWIDTH 42 0
DWIDTH 18 0
BBX 15 16 1 0
BITMAP
0380
0380
0380
0380
0380
0380
FFFE
FFFE
FFFE
0380
0380
0380
0380
0380
0380
0380
ENDCHAR
STARTCHAR comma
ENCODING 44
SWIDTH 42 0
DWIDTH 9 0
BBX 5 9 2 -4
BITMAP
F8
F8
F8
F8
F8
38
70
F0
C0
ENDCHAR
STARTCHAR minus
ENCODING 45
SWIDTH 42 0
DWIDTH 18 0
BBX 15 3 1 6
BITMAP
FFFE
FFFE
FFFE
ENDCHAR
STARTCHAR period
ENCODING 46
SWIDTH 42 0
DWIDTH 9 0
BBX 5 5 2 0
BITMAP
F8
F8
F8
F8
F8
ENDCHAR
STARTCHAR slash
ENCODING 47
SWIDTH 42 0
DWIDTH 15 0
BBX 15 24 0 -4
BITMAP
001E
001C
003C
0038
0078
0070
00F0
00E0
00E0
01C0
01C0
0380
0380
0700
0700
0E00
0E00
1E00
1C00
3C00
3800
7800
7000
F000
ENDCHAR
STARTCHAR zero
ENCODING 48
SWIDTH 42 0
DWIDTH 18 0
BBX 16 19 1 0
BITMAP
07E0
1FF8
3FFC
3C3C
7C3E
781E
F81F
F81F
F81F
F81F
F81F
F81F
F81F
781E
7C3E
3C3C
3FFC
1FF8
07E0
ENDCHAR
STARTCHAR one
ENCODING 49
SWIDTH 42 0
DWIDTH 18 0
BBX 8 19 4 0
BITMAP
FF
FF
FF
1F
1F
1F
1F
1F
1F
1F
1F
1F
1F
1F
1F
1F
1F
1F
1F
ENDCHAR
STARTCHAR two
ENCODING 50
SWIDTH 42 0
DWIDTH 18 0
BBX 14 19 2 0
BITMAP
3FC0
7FF0
7FF8
40FC
007C
007C
007C
00FC
00F8
01F0
03E0
07C0
0F80
3E00
7C00
FC00
FFFC
FFFC
FFFC
ENDCHAR
STARTCHAR three
ENCODING 51
SWIDTH 42 0
DWIDTH 18 0
BBX 14 19 2 0
BITMAP
3FC0
FFF0
FFF0
C1F8
00F8
00F8
00F8
01F0
3FC0
3FE0
3FF0
01F8
00FC
007C
007C
C0FC
FFF8
FFF0
7FC0
ENDCHAR
STARTCHAR four
ENCODING 52
SWIDTH 42 0
DWIDTH 18 0
BBX 16 19 1 0
BITMAP
007C
00FC
01FC
03FC
07FC
0F7C
1E7C
3E7C
3C7C
787C
F07C
FFFF
FFFF
FFFF
007C
007C
007C
007C
007C
ENDCHAR
STARTCHAR five
ENCODING 53
SWIDTH 42 0
DWIDTH 18 0
BBX 13 19 3 0
BITMAP
FFF8
FFF8
FFF8
E000
E000
E000
FF00
FFC0
FFE0
07F0
01F8
00F8
00F8
00F8
00F8
C1F0
FFF0
FFE0
7F80
ENDCHAR
STARTCHAR six
ENCODING 54
SWIDTH 42 0
DWIDTH 18 0
BBX 16 19 1 0
BITMAP
03FC
0FFE
1FFE
3F06
7E00
7C00
F800
F9F0
FFFC
FFFE
FC3F
F81F
F81F
F81F
781F
7C3E
3FFE
1FFC
07F0
ENDCHAR
STARTCHAR seven
ENCODING 55
SWIDTH 42 0
DWIDTH 18 0
BBX 14 19 3 0
BITMAP
FFFC
FFFC
FFFC
003C
0078
00F0
01F0
01E0
03C0
0780
0F80
0F00
1F00
1E00
3E00
3E00
7C00
7C00
7C00
ENDCHAR
STARTCHAR eight
ENCODING 56
SWIDTH 42 0
DWIDTH 18 0
BBX 15 19 1 0
BITMAP
0FE0
1FF8
3FFC
7C7C
783C
783C
7E38
3FF8
1FE0
1FF8
3DFC
787C
F83E
F81E
F81E
FC3E
7FFC
3FF8
0FE0
ENDCHAR
STARTCHAR nine
ENCODING 57
SWIDTH 42 0
DWIDTH 18 0
BBX 16 19 1 0
BITMAP
07E0
1FF8
7FFC
7C3E
F81E
F81F
F81F
F81F
FC3F
7FFF
3FFF
0F9F
001F
003E
007E
60FC
7FF8
7FF0
3FC0
ENDCHAR
STARTCHAR colon
ENCODING 58
SWIDTH 42 0
DWIDTH 9 0
BBX 5 14 2 0
BITMAP
F8
F8
F8
F8
F8
00
00
00
00
F8
F8
F8
F8
F8
ENDCHAR
STARTCHAR semicolon
ENCODING 59
SWIDTH 42 0
DWIDTH 9 0
BBX 5 18 2 -4
BITMAP
F8
F8
F8
F8
F8
00
00
00
00
F8
F8
F8
F8
F8
38
70
F0
C0
ENDCHAR
STARTCHAR less
ENCODING 60
SWIDTH 42 0
DWIDTH 18 0
BBX 15 16 1 0
BITMAP
0002
000E
003E
00FE
01F8
07E0
1F80
FE00
7E00
1F80
07E0
01F8
00FE
003E
000E
0002
ENDCHAR
STARTCHAR equal
ENCODING 61
SWIDTH 42 0
DWIDTH 18 0
BBX 15 10 1 2
BITMAP
FFFE
FFFE
FFFE
0000
0000
0000
0000
FFFE
FFFE
FFFE
ENDCHAR
STARTCHAR greater
ENCODING 62
SWIDTH 42 0
DWIDTH 18 0
BBX 15 16 1 0
BITMAP
8000
E000
F800
FE00
3F00
0FC0
03F0
00FC
00FE
03F0
0FC0
3F00
FE00
F800
E000
8000
ENDCHAR
STARTCHAR question
ENCODING 63
SWIDTH 42 0
DWIDTH 15 0
BBX 13 19 1 0
BITMAP
7FC0
FFF0
FFF8
C1F8
00F8
00F8
00F0
01E0
03C0
0780
0F80
0F00
1F00
0000
0000
0000
1F00
1F00
1F00
ENDCHAR
STARTCHAR at
ENCODING 64
SWIDTH 42 0
DWIDTH 22 0
BBX 20 19 3 0
BITMAP
00FE00
03FF80
0783C0
1E00E0
180060
307E70
71FC30
638C30
E70C30
C61C30
CE3870
CE7860
CFD8C0
CF9F80
670F00
700000
381000
1FF000
07E000
ENDCHAR
STARTCHAR A
ENCODING 65
SWIDTH 42 0
DWIDTH 20 0
BBX 19 19 1 0
BITMAP
01F000
01F800
03F800
03F800
07FC00
077C00
077E00
0F3E00
0E3E00
0E3F00
1C1F00
1FFF00
3FFF80
3FFF80
380FC0
7807C0
7007C0
7003E0
E003E0
ENDCHAR
STARTCHAR B
ENCODING 66
SWIDTH 42 0
DWIDTH 17 0
BBX 15 19 2 0
BITMAP
FFE0
FFF8
FFFC
F8FC
F87C
F87C
F878
F8F0
FFE0
FFE0
FFF8
F8FC
F83E
F83E
F83E
F87E
FFFC
FFFC
FFF0
ENDCHAR
STARTCHAR C
ENCODING 67
SWIDTH 42 0
DWIDTH 19 0
BBX 17 19 1 0
BITMAP
01FF00
0FFF80
1FFF80
3F0180
7E0000
7C0000
FC0000
F80000
F80000
F80000
F80000
F80000
FC0000
7C0000
7E0000
3F8180
1FFF80
0FFF80
03FE00
ENDCHAR
STARTCHAR D
ENCODING 68
SWIDTH 42 0
DWIDTH 21 0
BBX 18 19 2 0
BITMAP
FFF800
FFFE00
FFFF00
F83F80
F81F80
F80F80
F807C0
F807C0
F807C0
F807C0
F807C0
F807C0
F807C0
F80F80
F80F80
F83F00
FFFF00
FFFC00
FFF000
ENDCHAR
STARTCHAR E
ENCODING 69
SWIDTH 42 0
DWIDTH 17 0
BBX 13 19 2 0
BITMAP
FFF0
FFF0
FFF0
F800
F800
F800
F800
F800
FFE0
FFE0
FFE0
F800
F800
F800
F800
F800
FFF8
FFF8
FFF8
ENDCHAR
STARTCHAR F
ENCODING 70
SWIDTH 42 0
DWIDTH 16 0
BBX 13 19 2 0
BITMAP
FFF8
FFF8
FFF8
F800
F800
F800
F800
F800
FFF0
FFF0
FFF0
F800
F800
F800
F800
F800
F800
F800
F800
ENDCHAR
STARTCHAR G
ENCODING 71
SWIDTH 42 0
DWIDTH 20 0
BBX 17 19 1 0
BITMAP
01FF80
0FFF80
1FFF80
3F0180
7E0000
7C0000
FC0000
F80000
F80000
F80000
F80F80
F80F80
F80F80
7C0F80
7E0F80
3F8F80
1FFF80
0FFF80
03FF00
ENDCHAR
STARTCHAR H
ENCODING 72
SWIDTH 42 0
DWIDTH 21 0
BBX 17 19 2 0
BITMAP
F80F80
F80F80
F80F80
F80F80
F80F80
F80F80
F80F80
F80F80
FFFF80
FFFF80
FFFF80
F80F80
F80F80
F80F80
F80F80
F80F80
F80F80
F80F80
F80F80
ENDCHAR
STARTCHAR I
ENCODING 73
SWIDTH 42 0
DWIDTH 9 0
BBX 5 19 2 0
BITMAP
F8
F8
F8
F8
F8
F8
F8
F8
F8
F8
F8
F8
F8
F8
F8
F8
F8
F8
F8
ENDCHAR
STARTCHAR J
ENCODING 74
SWIDTH 42 0
DWIDTH 13 0
BBX 11 23 0 -4
BITMAP
03E0
03E0
03E0
03E0
03E0
03E0
03E0
03E0
03E0
03E0
03E0
03E0
03E0
03E0
03E0
03E0
03E0
03E0
03E0
87E0
FFC0
FF80
7F00
ENDCHAR
STARTCHAR K
ENCODING 75
SWIDTH 42 0
DWIDTH 20 0
BBX 17 19 2 0
BITMAP
F81E00
F81C00
F83C00
F87800
F8F000
F8E000
F9E000
FBC000
FBC000
FFC000
FFE000
FBF000
F9F800
F9F800
F8FC00
F87E00
F87E00
F83F00
F81F80
ENDCHAR
STARTCHAR L
ENCODING 76
SWIDTH 42 0
DWIDTH 16 0
BBX 13 19 2 0
BITMAP
F800
F800
F800
F800
F800
F800
F800
F800
F800
F800
F800
F800
F800
F800
F800
F800
FFF8
FFF8
FFF8
ENDCHAR
STARTCHAR M
ENCODING 77
SWIDTH 42 0
DWIDTH 24 0
BBX 20 19 2 0
BITMAP
FC03F0
FC03F0
FE07F0
FE07F0
FE07F0
FF0FF0
EF0FF0
EF0FF0
EF9DF0
E79DF0
E79DF0
E7F9F0
E3F9F0
E3F9F0
E3F1F0
E1F1F0
E1F1F0
E1E1F0
E001F0
ENDCHAR
STARTCHAR N
ENCODING 78
SWIDTH 42 0
DWIDTH 20 0
BBX 16 19 2 0
BITMAP
F007
F807
FC07
FE07
FE07
FF07
FF87
FFC7
EFC7
E7E7
E3F7
E3FF
E1FF
E0FF
E07F
E07F
E03F
E01F
E00F
ENDCHAR
STARTCHAR O
ENCODING 79
SWIDTH 42 0
DWIDTH 22 0
BBX 20 19 1 0
BITMAP
03FC00
0FFF00
1FFF80
3F0FC0
7E07E0
7C03E0
F801F0
F801F0
F801F0
F801F0
F801F0
F801F0
F801F0
7C03E0
7E07E0
3F0FC0
1FFF80
0FFF00
03FC00
ENDCHAR
STARTCHAR P
ENCODING 80
SWIDTH 42 0
DWIDTH 17 0
BBX 14 19 2 0
BITMAP
FFE0
FFF8
FFFC
F8FC
F87C
F87C
F87C
F8FC
F9F8
FFF8
FFF0
FFC0
F800
F800
F800
F800
F800
F800
F800
ENDCHAR
STARTCHAR Q
ENCODING 81
SWIDTH 42 0
DWIDTH 22 0
BBX 23 23 1 -4
BITMAP
03FC00
0FFF00
1FFF80
3F0FC0
7E07E0
7C03E0
F801F0
F801F0
F801F0
F801F0
F801F0
F801F0
F801F0
7C03E0
7E07E0
3F0FC0
1FFF80
0FFF00
03FF00
000FFE
0007FC
0001F8
000030
ENDCHAR
STARTCHAR R
ENCODING 82
SWIDTH 42 0
DWIDTH 19 0
BBX 17 19 2 0
BITMAP
FFE000
FFF800
FFF800
F8FC00
F87C00
F87C00
F87C00
F8F800
FFF800
FFF000
FFE000
F9F000
F9F800
F8F800
F8FC00
F87E00
F87F00
F83F00
F83F80
ENDCHAR
STARTCHAR S
ENCODING 83
SWIDTH 42 0
DWIDTH 15 0
BBX 14 19 1 0
BITMAP
0FF8
3FF8
7FF8
FC18
F800
FC00
FE00
7F80
7FE0
3FF0
0FF8
03FC
00FC
007C
007C
C0FC
FFF8
FFF0
FFC0
ENDCHAR
STARTCHAR T
ENCODING 84
SWIDTH 42 0
DWIDTH 19 0
BBX 19 19 0 0
BITMAP
FFFFE0
FFFFE0
FFFFE0
01F000
01F000
01F000
01F000
01F000
01F000
01F000
01F000
01F000
01F000
01F000
01F000
01F000
01F000
01F000
01F000
ENDCHAR
STARTCHAR U
ENCODING 85
SWIDTH 42 0
DWIDTH 20 0
BBX 16 19 2 0
BITMAP
F81F
F81F
F81F
F81F
F81F
F81F
F81F
F81F
F81F
F81F
F81F
F81F
F81F
F81F
FC3F
7C3E
7FFE
1FFC
07F0
ENDCHAR
STARTCHAR V
ENCODING 86
SWIDTH 42 0
DWIDTH 19 0
BBX 18 19 0 0
BITMAP
F801C0
FC0380
7C0380
7C0380
3E0700
3E0700
3F0700
1F0E00
1F0E00
1F8E00
0F9C00
0F9C00
0FDC00
07F800
07F800
07F800
03F000
03F000
03F000
ENDCHAR
STARTCHAR W
ENCODING 87
SWIDTH 42 0
DWIDTH 24 0
BBX 24 19 0 0
BITMAP
F81E07
F83E07
FC3E0E
7C3E0E
7C3F0E
7C7F0E
7E7F1C
3E7F1C
3E7F1C
3E77BC
3EE7B8
1FE7B8
1FE7B8
1FE7F8
1FC3F0
0FC3F0
0FC3F0
0FC3F0
0FC1E0
ENDCHAR
STARTCHAR X
ENCODING 88
SWIDTH 42 0
DWIDTH 18 0
BBX 17 19 1 0
BITMAP
FC0780
7E0F00
3E1E00
3F1C00
1FBC00
1FB800
0FF000
07F000
07E000
03F000
03F000
07F800
0FF800
0EFC00
1E7C00
3C7E00
383F00
783F00
F01F80
ENDCHAR
STARTCHAR Y
ENCODING 89
SWIDTH 42 0
DWIDTH 19 0
BBX 17 19 1 0
BITMAP
FC0780
7C0700
7E0F00
3E0E00
3F1C00
1F1C00
1FB800
0FF800
0FF000
07F000
03E000
03E000
03E000
03E000
03E000
03E000
03E000
03E000
03E000
ENDCHAR
STARTCHAR Z
ENCODING 90
SWIDTH 42 0
DWIDTH 18 0
BBX 14 19 2 0
BITMAP
FFFC
FFFC
FFFC
00FC
01F8
01F8
03F0
07E0
07E0
0FC0
1F80
1F80
3F00
7E00
7E00
FC00
FFFC
FFFC
FFFC
ENDCHAR
STARTCHAR bracketleft
ENCODING 91
SWIDTH 42 0
DWIDTH 10 0
BBX 6 24 2 -4
BITMAP
FC
FC
FC
F0
F0
F0
F0
F0
F0
F0
F0
F0
F0
F0
F0
F0
F0
F0
F0
F0
F0
FC
FC
FC
ENDCHAR
STARTCHAR backslash
ENCODING 92
SWIDTH 42 0
DWIDTH 15 0
BBX 15 24 0 -4
BITMAP
F000
7000
7800
3800
3C00
1C00
1E00
0E00
0E00
0700
0700
0380
0380
01C0
01C0
00E0
00E0
00F0
0070
0078
0038
003C
001C
001E
ENDCHAR
STARTCHAR bracketright
ENCODING 93
SWIDTH 42 0
DWIDTH 10 0
BBX 7 24 1 -4
BITMAP
FE
FE
FE
1E
1E
1E
1E
1E
1E
1E
1E
1E
1E
1E
1E
1E
1E
1E
1E
1E
1E
FE
FE
FE
ENDCHAR
STARTCHAR asciicircum
ENCODING 94
SWIDTH 42 0
DWIDTH 18 0
BBX 15 16 1 3
BITMAP
0100
0100
0380
0380
07C0
07C0
0FE0
0EE0
1EF0
1C70
1C70
3838
3838
701C
701C
E00E
ENDCHAR
STARTCHAR underscore
ENCODING 95
SWIDTH 42 0
DWIDTH 13 0
BBX 11 3 1 -3
BITMAP
FFE0
FFE0
FFE0
ENDCHAR
STARTCHAR quoteleft
ENCODING 96
SWIDTH 42 0
DWIDTH 7 0
BBX 5 9 1 11
BITMAP
18
78
60
E0
F8
F8
F8
F8
F8
ENDCHAR
STARTCHAR a
ENCODING 97
SWIDTH 42 0
DWIDTH 16 0
BBX 14 14 1 0
BITMAP
1FC0
7FF0
7FF8
41F8
00F8
00F8
1FF8
7FF8
FFF8
F8F8
F8F8
FFFC
7FFC
3E7C
ENDCHAR
STARTCHAR b
ENCODING 98
SWIDTH 42 0
DWIDTH 18 0
BBX 15 20 2 0
BITMAP
F800
F800
F800
F800
F800
F800
F9F0
FBF8
FFFC
FC7C
F83E
F83E
F83E
F83E
F83E
F87E
FC7C
FFFC
FFF8
F3E0
ENDCHAR
STARTCHAR c
ENCODING 99
SWIDTH 42 0
DWIDTH 14 0
BBX 12 14 1 0
BITMAP
0FE0
1FF0
3FF0
7E10
FC00
F800
F800
F800
F800
FC00
7E10
7FF0
3FF0
0FF0
ENDCHAR
STARTCHAR d
ENCODING 100
SWIDTH 42 0
DWIDTH 18 0
BBX 15 20 1 0
BITMAP
003E
003E
003E
003E
003E
003E
1F3E
3FFE
7FFE
7C7E
FC3E
F83E
F83E
F83E
F83E
F83E
7C7E
7FFE
3FBE
1F3E
ENDCHAR
STARTCHAR e
ENCODING 101
SWIDTH 42 0
DWIDTH 16 0
BBX 14 14 1 0
BITMAP
0FE0
3FF0
7FF8
7CF8
F87C
FFFC
FFFC
FFFC
F800
FC00
7E04
3FFC
1FFC
07F8
ENDCHAR
STARTCHAR f
ENCODING 102
SWIDTH 42 0
DWIDTH 12 0
BBX 12 20 0 0
BITMAP
07F0
1FF0
1FF0
3E00
3E00
3E00
FFE0
FFE0
FFE0
3E00
3E00
3E00
3E00
3E00
3E00
3E00
3E00
3E00
3E00
3E00
ENDCHAR
STARTCHAR g
ENCODING 103
SWIDTH 42 0
DWIDTH 18 0
BBX 15 19 1 -5
BITMAP
0FBE
3FFE
7FFE
7C7E
FC3E
F83E
F83E
F83E
F83E
F83E
7C7E
7FBE
3FBE
1E3E
003E
207E
3FFC
7FF8
1FE0
ENDCHAR
STARTCHAR h
ENCODING 104
SWIDTH 42 0
DWIDTH 18 0
BBX 14 20 2 0
BITMAP
F800
F800
F800
F800
F800
F800
F9F0
FBF8
FFFC
FFFC
FC7C
F87C
F87C
F87C
F87C
F87C
F87C
F87C
F87C
F87C
ENDCHAR
STARTCHAR i
ENCODING 105
SWIDTH 42 0
DWIDTH 9 0
BBX 5 20 2 0
BITMAP
F8
F8
F8
00
00
00
F8
F8
F8
F8
F8
F8
F8
F8
F8
F8
F8
F8
F8
F8
ENDCHAR
STARTCHAR j
ENCODING 106
SWIDTH 42 0
DWIDTH 9 0
BBX 10 25 -2 -5
BITMAP
07C0
07C0
07C0
0000
0000
0000
07C0
07C0
07C0
07C0
07C0
07C0
07C0
07C0
07C0
07C0
07C0
07C0
07C0
07C0
07C0
87C0
FF80
FF80
FE00
ENDCHAR
STARTCHAR k
ENCODING 107
SWIDTH 42 0
DWIDTH 18 0
BBX 15 20 2 0
BITMAP
F800
F800
F800
F800
F800
F800
F878
F870
F8F0
F9E0
F9C0
FBC0
FFC0
FBE0
FBF0
F9F0
F9F8
F8FC
F8FC
F87E
ENDCHAR
STARTCHAR l
ENCODING 108
SWIDTH 42 0
DWIDTH 9 0
BBX 5 20 2 0
BITMAP
F8
F8
F8
F8
F8
F8
F8
F8
F8
F8
F8
F8
F8
F8
F8
F8
F8
F8
F8
F8
ENDCHAR
STARTCHAR m
ENCODING 109
SWIDTH 42 0
DWIDTH 26 0
BBX 21 14 3 0
BITMAP
FBE1F0
F7F3F8
FFFFF8
FFFFF8
FCFCF8
F8F8F8
F8F8F8
F8F8F8
F8F8F8
F8F8F8
F8F8F8
F8F8F8
F8F8F8
F8F8F8
ENDCHAR
STARTCHAR n
ENCODING 110
SWIDTH 42 0
DWIDTH 18 0
BBX 14 14 2 0
BITMAP
F9F0
FBF8
FFFC
FFFC
FC7C
F87C
F87C
F87C
F87C
F87C
F87C
F87C
F87C
F87C
ENDCHAR
STARTCHAR o
ENCODING 111
SWIDTH 42 0
DWIDTH 18 0
BBX 16 14 1 0
BITMAP
07E0
1FF8
7FFE
7C3E
FC3F
F81F
F81F
F81F
F81F
FC3F
7C3E
7FFE
1FF8
07E0
ENDCHAR
STARTCHAR p
ENCODING 112
SWIDTH 42 0
DWIDTH 18 0
BBX 15 19 2 -5
BITMAP
F9F0
FBF8
FFFC
FC7C
F83E
F83E
F83E
F83E
F83E
F87E
FC7C
FFFC
FFF8
F9F0
F800
F800
F800
F800
F800
ENDCHAR
STARTCHAR q
ENCODING 113
SWIDTH 42 0
DWIDTH 18 0
BBX 15 19 1 -5
BITMAP
0F9E
3FFE
7FFE
7C7E
FC3E
F83E
F83E
F83E
F83E
F83E
7C7E
7FFE
3FBE
1F3E
003E
003E
003E
003E
003E
ENDCHAR
STARTCHAR r
ENCODING 114
SWIDTH 42 0
DWIDTH 13 0
BBX 10 14 2 0
BITMAP
F9C0
FBC0
FFC0
FFC0
FC00
F800
F800
F800
F800
F800
F800
F800
F800
F800
ENDCHAR
STARTCHAR s
ENCODING 115
SWIDTH 42 0
DWIDTH 16 0
BBX 13 14 2 0
BITMAP
1FE0
7FF0
FFF0
F830
F800
FF00
7FC0
1FF0
07F8
01F8
C0F8
FFF0
FFF0
7FC0
ENDCHAR
STARTCHAR t
ENCODING 116
SWIDTH 42 0
DWIDTH 11 0
BBX 9 18 1 0
BITMAP
1C00
7C00
7C00
7C00
FF80
FF80
FF80
7C00
7C00
7C00
7C00
7C00
7C00
7C00
7C00
7F80
3F80
1F80
ENDCHAR
STARTCHAR u
ENCODING 117
SWIDTH 42 0
DWIDTH 18 0
BBX 14 14 2 0
BITMAP
F87C
F87C
F87C
F87C
F87C
F87C
F87C
F87C
F87C
F87C
F8FC
FFFC
7F7C
3E7C
ENDCHAR
STARTCHAR v
ENCODING 118
SWIDTH 42 0
DWIDTH 17 0
BBX 16 14 1 0
BITMAP
FC0F
7C0E
7C0E
7E1E
3E1C
3F1C
1F38
1F38
1FF8
0FF0
0FF0
07E0
07E0
07E0
ENDCHAR
STARTCHAR w
ENCODING 119
SWIDTH 42 0
DWIDTH 23 0
BBX 21 14 1 0
BITMAP
F07838
F87C38
78FC70
78FC70
78FC70
7DFEE0
3DDEE0
3DDEE0
3DDEE0
3F8FC0
1F8FC0
1F8FC0
1F8FC0
1F0F80
ENDCHAR
STARTCHAR x
ENCODING 120
SWIDTH 42 0
DWIDTH 15 0
BBX 14 14 1 0
BITMAP
FC3C
7E78
3E70
3FF0
1FE0
1FC0
0FC0
0FC0
0FE0
1FE0
3FF0
39F8
78F8
F0FC
ENDCHAR
STARTCHAR y
ENCODING 121
SWIDTH 42 0
DWIDTH 17 0
BBX 16 19 0 -5
BITMAP
FC0F
7C0E
7C1E
7E1C
3E3C
3F38
1F78
1F70
1FF0
0FE0
0FE0
07C0
07C0
0780
0780
0F00
0F00
1F00
3E00
ENDCHAR
STARTCHAR z
ENCODING 122
SWIDTH 42 0
DWIDTH 16 0
BBX 13 14 2 0
BITMAP
FFF8
FFF8
FFF8
03F8
07F0
0FE0
0FC0
1F80
3F00
7F00
FE00
FFF8
FFF8
FFF8
ENDCHAR
STARTCHAR braceleft
ENCODING 123
SWIDTH 42 0
DWIDTH 10 0
BBX 7 24 2 -4
BITMAP
1E
3E
7E
7C
7C
7C
7C
7C
7C
7C
78
F0
F0
F8
7C
7C
7C
7C
7C
7C
7C
7E
3E
1E
ENDCHAR
STARTCHAR bar
ENCODING 124
SWIDTH 42 0
DWIDTH 7 0
BBX 3 24 2 -4
BITMAP
E0
E0
E0
E0
E0
E0
E0
E0
E0
E0
E0
E0
E0
E0
E0
E0
E0
E0
E0
E0
E0
E0
E0
E0
ENDCHAR
STARTCHAR braceright
ENCODING 125
SWIDTH 42 0
DWIDTH 10 0
BBX 7 24 1 -4
BITMAP
F0
F8
FC
7C
7C
7C
7C
7C
7C
7C
3C
1E
1E
3E
7C
7C
7C
7C
7C
7C
7C
FC
F8
F0
ENDCHAR
STARTCHAR asciitilde
ENCODING 126
SWIDTH 42 0
DWIDTH 18 0
BBX 15 7 1 4
BITMAP
3C0E
7E0E
7F8E
F7DE
E3FC
E0FC
E078
ENDCHAR
STARTCHAR exclamdown
ENCODING 161
SWIDTH 42 0
DWIDTH 9 0
BBX 5 19 2 -5
BITMAP
F8
F8
F8
00
00
00
70
70
70
70
F8
F8
F8
F8
F8
F8
F8
F8
F8
ENDCHAR
STARTCHAR cent
ENCODING 162
SWIDTH 42 0
DWIDTH 18 0
BBX 13 19 2 0
BITMAP
0380
0380
07F8
1FF8
3FF8
7C08
F800
F800
F800
F800
F800
FC00
FE00
7FF8
3FF8
1FF8
0380
0380
0380
ENDCHAR
STARTCHAR sterling
ENCODING 163
SWIDTH 42 0
DWIDTH 18 0
BBX 12 19 4 0
BITMAP
07F0
1FF0
1FF0
3F00
3E00
3E00
3E00
3E00
FF80
FF80
FF80
3E00
3E00
3C00
3C00
7000
FFF0
FFF0
FFF0
ENDCHAR
STARTCHAR currency
ENCODING 164
SWIDTH 42 0
DWIDTH 18 0
BBX 18 19 0 0
BITMAP
600180
600180
F003C0
780780
3DEF00
1FFE00
0FFC00
1F3E00
1E1E00
1C0E00
1C0E00
1E1E00
0F3C00
1FFE00
3FFF00
7DEF80
F807C0
700380
200100
ENDCHAR
STARTCHAR yen
ENCODING 165
SWIDTH 42 0
DWIDTH 18 0
BBX 17 19 0 0
BITMAP
FC0780
7C0700
7E0F00
3F0E00
3F1C00
1FBC00
0FB800
0FF800
07F000
07F000
1FFC00
1FFC00
03E000
1FFC00
1FFC00
03E000
03E000
03E000
03E000
ENDCHAR
STARTCHAR brokenbar
ENCODING 166
SWIDTH 42 0
DWIDTH 7 0
BBX 3 24 2 -4
BITMAP
E0
E0
E0
E0
E0
E0
E0
E0
E0
00
00
00
00
00
00
E0
E0
E0
E0
E0
E0
E0
E0
E0
ENDCHAR
STARTCHAR section
ENCODING 167
SWIDTH 42 0
DWIDTH 18 0
BBX 13 24 2 -5
BITMAP
1FF0
7FF0
FFF0
F810
F800
FE00
FF80
7FE0
3FF0
7FF8
E3F8
E0F8
F838
FF38
FFF0
7FE0
3FF0
0FF8
01F8
00F8
C0F8
FFF0
FFE0
FF80
ENDCHAR
STARTCHAR dieresis
ENCODING 168
SWIDTH 42 0
DWIDTH 18 0
BBX 8 3 5 16
BITMAP
E7
E7
E7
ENDCHAR
STARTCHAR copyright
ENCODING 169
SWIDTH 42 0
DWIDTH 21 0
BBX 19 19 1 0
BITMAP
01F000
07FC00
1E0F00
380380
31F980
67FCC0
6704C0
CE0060
CE0060
CE0060
CE0060
CF0060
6784C0
63FCC0
31F980
380380
1E0F00
07FC00
01F000
ENDCHAR
STARTCHAR ordfeminine
ENCODING 170
SWIDTH 42 0
DWIDTH 14 0
BBX 13 10 1 9
BITMAP
7FC0
7FE0
41F0
01F0
3FF0
7FF0
F9F0
F9F8
FFF8
7CF8
ENDCHAR
STARTCHAR guillemotleft
ENCODING 171
SWIDTH 42 0
DWIDTH 16 0
BBX 14 12 1 1
BITMAP
0408
0E1C
1E38
3C78
3CF0
F9E0
79E0
3CF0
3C78
1E38
0E1C
0410
ENDCHAR
STARTCHAR logicalnot
ENCODING 172
SWIDTH 42 0
DWIDTH 18 0
BBX 15 10 1 2
BITMAP
FFFE
FFFE
FFFE
000E
000E
000E
000E
000E
000E
000E
ENDCHAR
STARTCHAR hyphen
ENCODING 173
SWIDTH 42 0
DWIDTH 8 0
BBX 6 3 1 7
BITMAP
FC
FC
FC
ENDCHAR
STARTCHAR registered
ENCODING 174
SWIDTH 42 0
DWIDTH 18 0
BBX 13 14 2 5
BITMAP
0F80
1FC0
38E0
6030
EFB8
CF98
CD98
CF98
CF18
EDB8
6DB0
38E0
3FE0
0F80
ENDCHAR
STARTCHAR macron
ENCODING 175
SWIDTH 42 0
DWIDTH 18 0
BBX 8 3 5 16
BITMAP
FF
FF
FF
ENDCHAR
STARTCHAR degree
ENCODING 176
SWIDTH 42 0
DWIDTH 6 0
BBX 4 5 1 14
BITMAP
60
90
90
90
60
ENDCHAR
STARTCHAR plusminus
ENCODING 177
SWIDTH 42 0
DWIDTH 18 0
BBX 15 16 1 0
BITMAP
0380
0380
0380
0380
FFFE
FFFE
FFFE
0380
0380
0380
0380
0380
0000
FFFE
FFFE
FFFE
ENDCHAR
STARTCHAR twosuperior
ENCODING 178
SWIDTH 42 0
DWIDTH 11 0
BBX 8 11 -16 8
BITMAP
7C
FF
87
07
07
0E
1C
78
F0
FF
FF
ENDCHAR
STARTCHAR threesuperior
ENCODING 179
SWIDTH 42 0
DWIDTH 11 0
BBX 8 11 -17 8
BITMAP
7C
FF
87
07
7E
7C
0E
07
87
FF
FC
ENDCHAR
STARTCHAR acute
ENCODING 180
SWIDTH 42 0
DWIDTH 18 0
BBX 7 3 6 17
BITMAP
3E
78
F0
ENDCHAR
STARTCHAR mu
ENCODING 181
SWIDTH 42 0
DWIDTH 18 0
BBX 14 18 2 -4
BITMAP
F87C
F87C
F87C
F87C
F87C
F87C
F87C
F87C
F87C
F87C
F8FC
FFFC
FF7C
FE7C
F800
F800
F800
F800
ENDCHAR
STARTCHAR paragraph
ENCODING 182
SWIDTH 42 0
DWIDTH 18 0
BBX 11 23 2 -4
BITMAP
3FE0
7FE0
FFE0
FFE0
FFE0
FFE0
FFE0
7FE0
3FE0
0FE0
07E0
07E0
07E0
07E0
07E0
07E0
07E0
07E0
07E0
07E0
07E0
07E0
07E0
ENDCHAR
STARTCHAR periodcentered
ENCODING 183
SWIDTH 42 0
DWIDTH 18 0
BBX 4 3 7 7
BITMAP
F0
F0
F0
ENDCHAR
STARTCHAR cedilla
ENCODING 184
SWIDTH 42 0
DWIDTH 18 0
BBX 5 5 6 -5
BITMAP
30
60
38
F8
F0
ENDCHAR
STARTCHAR onesuperior
ENCODING 185
SWIDTH 42 0
DWIDTH 11 0
BBX 5 11 -17 8
BITMAP
F8
F8
38
38
38
38
38
38
38
38
38
ENDCHAR
STARTCHAR ordmasculine
ENCODING 186
SWIDTH 42 0
DWIDTH 14 0
BBX 13 10 0 9
BITMAP
1FC0
3FE0
79F0
F0F8
F0F8
F0F8
F0F8
79F0
3FE0
1FC0
ENDCHAR
STARTCHAR guillemotright
ENCODING 187
SWIDTH 42 0
DWIDTH 16 0
BBX 14 12 1 1
BITMAP
2080
E1C0
71E0
78F0
3CF0
1E78
1E7C
3CF0
78E0
71E0
E1C0
4080
ENDCHAR
STARTCHAR onequarter
ENCODING 188
SWIDTH 42 0
DWIDTH 24 0
BBX 21 19 6 0
BITMAP
F801E0
F803C0
380780
380700
380F00
381E00
383C00
383800
387870
38F0F0
39E1F0
01C370
03C770
078E70
0F0FF8
0E0FF8
1E0070
3C0070
780070
ENDCHAR
STARTCHAR onehalf
ENCODING 189
SWIDTH 42 0
DWIDTH 24 0
BBX 20 19 6 0
BITMAP
F801E0
F803C0
380780
380700
380F00
381E00
383C00
383800
387FC0
38FFF0
39E870
01C070
03C070
0780E0
0F01C0
0E0780
1E0F00
3C0FF0
780FF0
ENDCHAR
STARTCHAR threequarters
ENCODING 190
SWIDTH 42 0
DWIDTH 24 0
BBX 21 19 6 0
BITMAP
7C01E0
FF03C0
870780
070700
7E0F00
7C1E00
0E3C00
073800
877870
FFF0F0
FDE1F0
01C370
03C770
078E70
0F0FF8
0E0FF8
1E0070
3C0070
780070
ENDCHAR
STARTCHAR questiondown
ENCODING 191
SWIDTH 42 0
DWIDTH 15 0
BBX 13 19 1 -5
BITMAP
07C0
07C0
07C0
0000
0000
0000
07C0
0780
0F80
0F00
1E00
3C00
7800
F800
F800
FC18
FFF8
7FF8
1FF0
ENDCHAR
STARTCHAR Agrave
ENCODING 192
SWIDTH 42 0
DWIDTH 20 0
BBX 19 23 1 0
BITMAP
03E000
00F000
007800
000000
01F000
01F800
03F800
03F800
07FC00
077C00
077E00
0F3E00
0E3E00
0E3F00
1C1F00
1FFF00
3FFF80
3FFF80
380FC0
7807C0
7007C0
7003E0
E003E0
ENDCHAR
STARTCHAR Aacute
ENCODING 193
SWIDTH 42 0
DWIDTH 20 0
BBX 19 23 1 0
BITMAP
007C00
00F000
01E000
000000
01F000
01F800
03F800
03F800
07FC00
077C00
077E00
0F3E00
0E3E00
0E3F00
1C1F00
1FFF00
3FFF80
3FFF80
380FC0
7807C0
7007C0
7003E0
E003E0
ENDCHAR
STARTCHAR Acircumflex
ENCODING 194
SWIDTH 42 0
DWIDTH 20 0
BBX 19 23 1 0
BITMAP
01F000
03F800
071C00
000000
01F000
01F800
03F800
03F800
07FC00
077C00
077E00
0F3E00
0E3E00
0E3F00
1C1F00
1FFF00
3FFF80
3FFF80
380FC0
7807C0
7007C0
7003E0
E003E0
ENDCHAR
STARTCHAR Atilde
ENCODING 195
SWIDTH 42 0
DWIDTH 20 0
BBX 19 23 1 0
BITMAP
03DC00
07FC00
077800
000000
01F000
01F800
03F800
03F800
07FC00
077C00
077E00
0F3E00
0E3E00
0E3F00
1C1F00
1FFF00
3FFF80
3FFF80
380FC0
7807C0
7007C0
7003E0
E003E0
ENDCHAR
STARTCHAR Adieresis
ENCODING 196
SWIDTH 42 0
DWIDTH 20 0
BBX 19 23 1 0
BITMAP
039C00
039C00
039C00
000000
01F000
01F800
03F800
03F800
07FC00
077C00
077E00
0F3E00
0E3E00
0E3F00
1C1F00
1FFF00
3FFF80
3FFF80
380FC0
7807C0
7007C0
7003E0
E003E0
ENDCHAR
STARTCHAR Aring
ENCODING 197
SWIDTH 42 0
DWIDTH 20 0
BBX 19 24 1 0
BITMAP
00C000
012000
012000
00C000
000000
01F000
01F800
03F800
03F800
07FC00
077C00
077E00
0F3E00
0E3E00
0E3F00
1C1F00
1FFF00
3FFF80
3FFF80
380FC0
7807C0
7007C0
7003E0
E003E0
ENDCHAR
STARTCHAR AE
ENCODING 198
SWIDTH 42 0
DWIDTH 26 0
BBX 25 19 0 0
BITMAP
003FFF00
003FFF00
007FFF00
007F0000
00FF0000
00FF0000
01DF0000
01DF0000
039FFE00
079FFE00
071FFE00
0F1F0000
0FFF0000
1FFF0000
1FFF0000
381F0000
381FFF80
701FFF80
F01FFF80
ENDCHAR
STARTCHAR Ccedilla
ENCODING 199
SWIDTH 42 0
DWIDTH 19 0
BBX 17 24 1 -5
BITMAP
01FF00
0FFF80
1FFF80
3F0180
7E0000
7C0000
FC0000
F80000
F80000
F80000
F80000
F80000
FC0000
7C0000
7E0000
3F8180
1FFF80
0FFF80
03FE00
00C000
018000
00E000
03E000
03C000
ENDCHAR
STARTCHAR Egrave
ENCODING 200
SWIDTH 42 0
DWIDTH 17 0
BBX 13 23 2 0
BITMAP
3E00
0F00
0780
0000
FFF0
FFF0
FFF0
F800
F800
F800
F800
F800
FFE0
FFE0
FFE0
F800
F800
F800
F800
F800
FFF8
FFF8
FFF8
ENDCHAR
STARTCHAR Eacute
ENCODING 201
SWIDTH 42 0
DWIDTH 17 0
BBX 13 23 2 0
BITMAP
03E0
0780
0F00
0000
FFF0
FFF0
FFF0
F800
F800
F800
F800
F800
FFE0
FFE0
FFE0
F800
F800
F800
F800
F800
FFF8
FFF8
FFF8
ENDCHAR
STARTCHAR Ecircumflex
ENCODING 202
SWIDTH 42 0
DWIDTH 17 0
BBX 13 23 2 0
BITMAP
0F80
1FC0
38E0
0000
FFF0
FFF0
FFF0
F800
F800
F800
F800
F800
FFE0
FFE0
FFE0
F800
F800
F800
F800
F800
FFF8
FFF8
FFF8
ENDCHAR
STARTCHAR Edieresis
ENCODING 203
SWIDTH 42 0
DWIDTH 17 0
BBX 13 23 2 0
BITMAP
39C0
39C0
39C0
0000
FFF0
FFF0
FFF0
F800
F800
F800
F800
F800
FFE0
FFE0
FFE0
F800
F800
F800
F800
F800
FFF8
FFF8
FFF8
ENDCHAR
STARTCHAR Igrave
ENCODING 204
SWIDTH 42 0
DWIDTH 9 0
BBX 7 23 3 0
BITMAP
F8
3C
1E
00
7C
7C
7C
7C
7C
7C
7C
7C
7C
7C
7C
7C
7C
7C
7C
7C
7C
7C
7C
ENDCHAR
STARTCHAR Iacute
ENCODING 205
SWIDTH 42 0
DWIDTH 9 0
BBX 7 23 2 0
BITMAP
3E
78
F0
00
F8
F8
F8
F8
F8
F8
F8
F8
F8
F8
F8
F8
F8
F8
F8
F8
F8
F8
F8
ENDCHAR
STARTCHAR Icircumflex
ENCODING 206
SWIDTH 42 0
DWIDTH 9 0
BBX 9 23 4 0
BITMAP
3E00
7F00
E380
0000
3E00
3E00
3E00
3E00
3E00
3E00
3E00
3E00
3E00
3E00
3E00
3E00
3E00
3E00
3E00
3E00
3E00
3E00
3E00
ENDCHAR
STARTCHAR Idieresis
ENCODING 207
SWIDTH 42 0
DWIDTH 9 0
BBX 8 23 3 0
BITMAP
E7
E7
E7
00
7C
7C
7C
7C
7C
7C
7C
7C
7C
7C
7C
7C
7C
7C
7C
7C
7C
7C
7C
ENDCHAR
STARTCHAR Eth
ENCODING 208
SWIDTH 42 0
DWIDTH 21 0
BBX 21 19 0 0
BITMAP
1FFF00
1FFFC0
1FFFE0
1F07F0
1F03F0
1F01F0
1F00F8
1F00F8
FFF0F8
FFF0F8
FFF0F8
1F00F8
1F00F8
1F01F0
1F01F0
1F07E0
1FFFE0
1FFF80
1FFE00
ENDCHAR
STARTCHAR Ntilde
ENCODING 209
SWIDTH 42 0
DWIDTH 20 0
BBX 16 23 2 0
BITMAP
07B8
0FF8
0EF0
0000
F007
F807
FC07
FE07
FE07
FF07
FF87
FFC7
EFC7
E7E7
E3F7
E3FF
E1FF
E0FF
E07F
E07F
E03F
E01F
E00F
ENDCHAR
STARTCHAR Ograve
ENCODING 210
SWIDTH 42 0
DWIDTH 22 0
BBX 20 23 1 0
BITMAP
03E000
00F000
007800
000000
03FC00
0FFF00
1FFF80
3F0FC0
7E07E0
7C03E0
F801F0
F801F0
F801F0
F801F0
F801F0
F801F0
F801F0
7C03E0
7E07E0
3F0FC0
1FFF80
0FFF00
03FC00
ENDCHAR
STARTCHAR Oacute
ENCODING 211
SWIDTH 42 0
DWIDTH 22 0
BBX 20 23 1 0
BITMAP
003E00
007800
00F000
000000
03FC00
0FFF00
1FFF80
3F0FC0
7E07E0
7C03E0
F801F0
F801F0
F801F0
F801F0
F801F0
F801F0
F801F0
7C03E0
7E07E0
3F0FC0
1FFF80
0FFF00
03FC00
ENDCHAR
STARTCHAR Ocircumflex
ENCODING 212
SWIDTH 42 0
DWIDTH 22 0
BBX 20 23 1 0
BITMAP
00F800
01FC00
038E00
000000
03FC00
0FFF00
1FFF80
3F0FC0
7E07E0
7C03E0
F801F0
F801F0
F801F0
F801F0
F801F0
F801F0
F801F0
7C03E0
7E07E0
3F0FC0
1FFF80
0FFF00
03FC00
ENDCHAR
STARTCHAR Otilde
ENCODING 213
SWIDTH 42 0
DWIDTH 22 0
BBX 20 23 1 0
BITMAP
01EE00
03FE00
03BC00
000000
03FC00
0FFF00
1FFF80
3F0FC0
7E07E0
7C03E0
F801F0
F801F0
F801F0
F801F0
F801F0
F801F0
F801F0
7C03E0
7E07E0
3F0FC0
1FFF80
0FFF00
03FC00
ENDCHAR
STARTCHAR Odieresis
ENCODING 214
SWIDTH 42 0
DWIDTH 22 0
BBX 20 23 1 0
BITMAP
039C00
039C00
039C00
000000
03FC00
0FFF00
1FFF80
3F0FC0
7E07E0
7C03E0
F801F0
F801F0
F801F0
F801F0
F801F0
F801F0
F801F0
7C03E0
7E07E0
3F0FC0
1FFF80
0FFF00
03FC00
ENDCHAR
STARTCHAR multiply
ENCODING 215
SWIDTH 42 0
DWIDTH 18 0
BBX 15 16 1 0
BITMAP
600C
600C
F01E
783C
3C78
1EF0
0FE0
07C0
07C0
0FE0
1EF0
3C78
783C
F01E
600C
600C
ENDCHAR
STARTCHAR Oslash
ENCODING 216
SWIDTH 42 0
DWIDTH 22 0
BBX 20 19 1 0
BITMAP
03FCF0
0FFFE0
1FFFC0
3F0FC0
7E0FE0
7C1FE0
F81DF0
F83DF0
F879F0
F8F1F0
F9E1F0
FBC1F0
FB81F0
7F83E0
7F07E0
3F0FC0
3FFF80
7FFF00
F3FC00
ENDCHAR
STARTCHAR Ugrave
ENCODING 217
SWIDTH 42 0
DWIDTH 20 0
BBX 16 23 2 0
BITMAP
0F80
03C0
01E0
0000
F81F
F81F
F81F
F81F
F81F
F81F
F81F
F81F
F81F
F81F
F81F
F81F
F81F
F81F
FC3F
7C3E
7FFE
1FFC
07F0
ENDCHAR
STARTCHAR Uacute
ENCODING 218
SWIDTH 42 0
DWIDTH 20 0
BBX 16 23 2 0
BITMAP
00F8
01E0
03C0
0000
F81F
F81F
F81F
F81F
F81F
F81F
F81F
F81F
F81F
F81F
F81F
F81F
F81F
F81F
FC3F
7C3E
7FFE
1FFC
07F0
ENDCHAR
STARTCHAR Ucircumflex
ENCODING 219
SWIDTH 42 0
DWIDTH 20 0
BBX 16 23 2 0
BITMAP
03E0
07F0
0E38
0000
F81F
F81F
F81F
F81F
F81F
F81F
F81F
F81F
F81F
F81F
F81F
F81F
F81F
F81F
FC3F
7C3E
7FFE
1FFC
07F0
ENDCHAR
STARTCHAR Udieresis
ENCODING 220
SWIDTH 42 0
DWIDTH 20 0
BBX 16 23 2 0
BITMAP
0E70
0E70
0E70
0000
F81F
F81F
F81F
F81F
F81F
F81F
F81F
F81F
F81F
F81F
F81F
F81F
F81F
F81F
FC3F
7C3E
7FFE
1FFC
07F0
ENDCHAR
STARTCHAR Yacute
ENCODING 221
SWIDTH 42 0
DWIDTH 19 0
BBX 17 23 1 0
BITMAP
00F800
01E000
03C000
000000
FC0780
7C0700
7E0F00
3E0E00
3F1C00
1F1C00
1FB800
0FF800
0FF000
07F000
03E000
03E000
03E000
03E000
03E000
03E000
03E000
03E000
03E000
ENDCHAR
STARTCHAR Thorn
ENCODING 222
SWIDTH 42 0
DWIDTH 17 0
BBX 14 19 2 0
BITMAP
F800
F800
F800
FFE0
FFF8
FFFC
F8FC
F87C
F87C
F87C
F8FC
F9F8
FFF8
FFF0
FFC0
F800
F800
F800
F800
ENDCHAR
STARTCHAR germandbls
ENCODING 223
SWIDTH 42 0
DWIDTH 19 0
BBX 16 20 2 0
BITMAP
0FC0
3FF0
7FF0
78F0
F870
F8F0
F8E0
F9C0
F9E0
FBF0
FBF8
F9FC
F9FE
F87F
F83F
F81F
F81F
F9FF
F9FE
F9F8
ENDCHAR
STARTCHAR agrave
ENCODING 224
SWIDTH 42 0
DWIDTH 16 0
BBX 14 18 1 0
BITMAP
1F00
0780
03C0
0000
1FC0
7FF0
7FF8
41F8
00F8
00F8
1FF8
7FF8
FFF8
F8F8
F8F8
FFFC
7FFC
3E7C
ENDCHAR
STARTCHAR aacute
ENCODING 225
SWIDTH 42 0
DWIDTH 16 0
BBX 14 18 1 0
BITMAP
01F0
03C0
0780
0000
1FC0
7FF0
7FF8
41F8
00F8
00F8
1FF8
7FF8
FFF8
F8F8
F8F8
FFFC
7FFC
3E7C
ENDCHAR
STARTCHAR acircumflex
ENCODING 226
SWIDTH 42 0
DWIDTH 16 0
BBX 14 18 1 0
BITMAP
07C0
0FE0
1C70
0000
1FC0
7FF0
7FF8
41F8
00F8
00F8
1FF8
7FF8
FFF8
F8F8
F8F8
FFFC
7FFC
3E7C
ENDCHAR
STARTCHAR atilde
ENCODING 227
SWIDTH 42 0
DWIDTH 16 0
BBX 14 18 1 0
BITMAP
0F70
1FF0
1DE0
0000
1FC0
7FF0
7FF8
41F8
00F8
00F8
1FF8
7FF8
FFF8
F8F8
F8F8
FFFC
7FFC
3E7C
ENDCHAR
STARTCHAR adieresis
ENCODING 228
SWIDTH 42 0
DWIDTH 16 0
BBX 14 18 1 0
BITMAP
1CE0
1CE0
1CE0
0000
1FC0
7FF0
7FF8
41F8
00F8
00F8
1FF8
7FF8
FFF8
F8F8
F8F8
FFFC
7FFC
3E7C
ENDCHAR
STARTCHAR aring
ENCODING 229
SWIDTH 42 0
DWIDTH 16 0
BBX 14 19 1 0
BITMAP
0300
0480
0480
0300
0000
1FC0
7FF0
7FF8
41F8
00F8
00F8
1FF8
7FF8
FFF8
F8F8
F8F8
FFFC
7FFC
3E7C
ENDCHAR
STARTCHAR ae
ENCODING 230
SWIDTH 42 0
DWIDTH 24 0
BBX 22 14 1 0
BITMAP
1F87C0
7FFFF0
7FFFF8
60FCF8
00F87C
00F87C
1FFFFC
7FFFFC
FFFFFC
F8F800
F8FC04
FFBFFC
7F9FFC
3E0FF8
ENDCHAR
STARTCHAR ccedilla
ENCODING 231
SWIDTH 42 0
DWIDTH 14 0
BBX 12 19 1 -5
BITMAP
0FE0
1FF0
3FF0
7E10
FC00
F800
F800
F800
F800
FC00
7E10
7FF0
3FF0
0FF0
0300
0600
0380
0F80
0F00
ENDCHAR
STARTCHAR egrave
ENCODING 232
SWIDTH 42 0
DWIDTH 16 0
BBX 14 18 1 0
BITMAP
1F00
0780
03C0
0000
0FE0
3FF0
7FF8
7CF8
F87C
FFFC
FFFC
FFFC
F800
FC00
7E04
3FFC
1FFC
07F8
ENDCHAR
STARTCHAR eacute
ENCODING 233
SWIDTH 42 0
DWIDTH 16 0
BBX 14 18 1 0
BITMAP
01F0
03C0
0780
0000
0FE0
3FF0
7FF8
7CF8
F87C
FFFC
FFFC
FFFC
F800
FC00
7E04
3FFC
1FFC
07F8
ENDCHAR
STARTCHAR ecircumflex
ENCODING 234
SWIDTH 42 0
DWIDTH 16 0
BBX 14 18 1 0
BITMAP
07C0
0FE0
1C70
0000
0FE0
3FF0
7FF8
7CF8
F87C
FFFC
FFFC
FFFC
F800
FC00
7E04
3FFC
1FFC
07F8
ENDCHAR
STARTCHAR edieresis
ENCODING 235
SWIDTH 42 0
DWIDTH 16 0
BBX 14 18 1 0
BITMAP
1CE0
1CE0
1CE0
0000
0FE0
3FF0
7FF8
7CF8
F87C
FFFC
FFFC
FFFC
F800
FC00
7E04
3FFC
1FFC
07F8
ENDCHAR
STARTCHAR igrave
ENCODING 236
SWIDTH 42 0
DWIDTH 9 0
BBX 7 18 4 0
BITMAP
F8
3C
1E
00
3E
3E
3E
3E
3E
3E
3E
3E
3E
3E
3E
3E
3E
3E
ENDCHAR
STARTCHAR iacute
ENCODING 237
SWIDTH 42 0
DWIDTH 9 0
BBX 7 18 2 0
BITMAP
3E
78
F0
00
F8
F8
F8
F8
F8
F8
F8
F8
F8
F8
F8
F8
F8
F8
ENDCHAR
STARTCHAR icircumflex
ENCODING 238
SWIDTH 42 0
DWIDTH 9 0
BBX 9 18 4 0
BITMAP
3E00
7F00
E380
0000
3E00
3E00
3E00
3E00
3E00
3E00
3E00
3E00
3E00
3E00
3E00
3E00
3E00
3E00
ENDCHAR
STARTCHAR idieresis
ENCODING 239
SWIDTH 42 0
DWIDTH 9 0
BBX 8 18 3 0
BITMAP
E7
E7
E7
00
7C
7C
7C
7C
7C
7C
7C
7C
7C
7C
7C
7C
7C
7C
ENDCHAR
STARTCHAR eth
ENCODING 240
SWIDTH 42 0
DWIDTH 18 0
BBX 15 23 1 0
BITMAP
0080
01C0
03E0
F780
FF80
FFC0
1FE0
3FF0
79F8
70FC
2FFC
3FFC
7FFE
7C7E
F83E
F83E
F83E
F83E
F83C
7C7C
7FF8
3FF0
0FC0
ENDCHAR
STARTCHAR ntilde
ENCODING 241
SWIDTH 42 0
DWIDTH 18 0
BBX 14 18 2 0
BITMAP
0F70
1FF0
1DE0
0000
F9F0
FBF8
FFFC
FFFC
FC7C
F87C
F87C
F87C
F87C
F87C
F87C
F87C
F87C
F87C
ENDCHAR
STARTCHAR ograve
ENCODING 242
SWIDTH 42 0
DWIDTH 18 0
BBX 16 18 1 0
BITMAP
0F80
03C0
01E0
0000
07E0
1FF8
7FFE
7C3E
FC3F
F81F
F81F
F81F
F81F
FC3F
7C3E
7FFE
1FF8
07E0
ENDCHAR
STARTCHAR oacute
ENCODING 243
SWIDTH 42 0
DWIDTH 18 0
BBX 16 18 1 0
BITMAP
00F8
01E0
03C0
0000
07E0
1FF8
7FFE
7C3E
FC3F
F81F
F81F
F81F
F81F
FC3F
7C3E
7FFE
1FF8
07E0
ENDCHAR
STARTCHAR ocircumflex
ENCODING 244
SWIDTH 42 0
DWIDTH 18 0
BBX 16 18 1 0
BITMAP
03E0
07F0
0E38
0000
07E0
1FF8
7FFE
7C3E
FC3F
F81F
F81F
F81F
F81F
FC3F
7C3E
7FFE
1FF8
07E0
ENDCHAR
STARTCHAR otilde
ENCODING 245
SWIDTH 42 0
DWIDTH 18 0
BBX 16 18 1 0
BITMAP
07B8
0FF8
0EF0
0000
07E0
1FF8
7FFE
7C3E
FC3F
F81F
F81F
F81F
F81F
FC3F
7C3E
7FFE
1FF8
07E0
ENDCHAR
STARTCHAR odieresis
ENCODING 246
SWIDTH 42 0
DWIDTH 18 0
BBX 16 18 1 0
BITMAP
0E70
0E70
0E70
0000
07E0
1FF8
7FFE
7C3E
FC3F
F81F
F81F
F81F
F81F
FC3F
7C3E
7FFE
1FF8
07E0
ENDCHAR
STARTCHAR divide
ENCODING 247
SWIDTH 42 0
DWIDTH 18 0
BBX 15 16 1 0
BITMAP
0380
0380
0380
0000
0000
0000
FFFE
FFFE
FFFE
0000
0000
0000
0000
0380
0380
0380
ENDCHAR
STARTCHAR oslash
ENCODING 248
SWIDTH 42 0
DWIDTH 18 0
BBX 16 14 1 0
BITMAP
07EF
1FFE
7FFE
7C7E
FCFF
F9FF
FBDF
FBDF
FF9F
FF3F
7E3E
7FFE
7FF8
F7E0
ENDCHAR
STARTCHAR ugrave
ENCODING 249
SWIDTH 42 0
DWIDTH 18 0
BBX 14 18 2 0
BITMAP
1F00
0780
03C0
0000
F87C
F87C
F87C
F87C
F87C
F87C
F87C
F87C
F87C
F87C
F8FC
FFFC
7F7C
3E7C
ENDCHAR
STARTCHAR uacute
ENCODING 250
SWIDTH 42 0
DWIDTH 18 0
BBX 14 18 2 0
BITMAP
01F0
03C0
0780
0000
F87C
F87C
F87C
F87C
F87C
F87C
F87C
F87C
F87C
F87C
F8FC
FFFC
7F7C
3E7C
ENDCHAR
STARTCHAR ucircumflex
ENCODING 251
SWIDTH 42 0
DWIDTH 18 0
BBX 14 18 2 0
BITMAP
07C0
0FE0
1C70
0000
F87C
F87C
F87C
F87C
F87C
F87C
F87C
F87C
F87C
F87C
F8FC
FFFC
7F7C
3E7C
ENDCHAR
STARTCHAR udieresis
ENCODING 252
SWIDTH 42 0
DWIDTH 18 0
BBX 14 18 2 0
BITMAP
1CE0
1CE0
1CE0
0000
F87C
F87C
F87C
F87C
F87C
F87C
F87C
F87C
F87C
F87C
F8FC
FFFC
7F7C
3E7C
ENDCHAR
STARTCHAR yacute
ENCODING 253
SWIDTH 42 0
DWIDTH 17 0
BBX 16 23 0 -5
BITMAP
01F0
03C0
0780
0000
FC0F
7C0E
7C1E
7E1C
3E3C
3F38
1F78
1F70
1FF0
0FE0
0FE0
07C0
07C0
0780
0780
0F00
0F00
1F00
3E00
ENDCHAR
STARTCHAR thorn
ENCODING 254
SWIDTH 42 0
DWIDTH 18 0
BBX 15 24 2 -5
BITMAP
F800
F800
F800
F800
F800
F9F0
FBF8
FBFC
FC7C
F83E
F83E
F83E
F83E
F83E
F87E
FC7C
FFFC
FFF8
F9F0
F800
F800
F800
F800
F800
ENDCHAR
STARTCHAR ydieresis
ENCODING 255
SWIDTH 42 0
DWIDTH 17 0
BBX 16 23 0 -5
BITMAP
0E70
0E70
0E70
0000
FC0F
7C0E
7C1E
7E1C
3E3C
3F38
1F78
1F70
1FF0
0FE0
0FE0
07C0
07C0
0780
0780
0F00
0F00
1F00
3E00
ENDCHAR
STARTCHAR fl
ENCODING -1
SWIDTH 42 0
DWIDTH 18 0
BBX 16 20 0 0
BITMAP
0FFF
1FFF
3FFF
3E1F
3E1F
3E1F
FFDF
FFDF
FFDF
3E1F
3E1F
3E1F
3E1F
3E1F
3E1F
3E1F
3E1F
3E1F
3E1F
3E1F
ENDCHAR
STARTCHAR endash
ENCODING -1
SWIDTH 42 0
DWIDTH 13 0
BBX 11 3 1 7
BITMAP
FFE0
FFE0
FFE0
ENDCHAR
STARTCHAR dagger
ENCODING -1
SWIDTH 42 0
DWIDTH 18 0
BBX 14 23 2 -4
BITMAP
0780
0780
0780
0780
0780
0780
FFFC
FFFC
FFFC
0780
0780
0780
0780
0780
0780
0780
0780
0780
0780
0780
0780
0780
0780
ENDCHAR
STARTCHAR Zcaron
ENCODING -1
SWIDTH 42 0
DWIDTH 18 0
BBX 14 23 2 0
BITMAP
1C70
0FE0
07C0
0000
FFFC
FFFC
FFFC
00FC
01F8
01F8
03F0
07E0
07E0
0FC0
1F80
1F80
3F00
7E00
7E00
FC00
FFFC
FFFC
FFFC
ENDCHAR
STARTCHAR oe
ENCODING -1
SWIDTH 42 0
DWIDTH 26 0
BBX 24 14 1 0
BITMAP
0FC1F0
1FF3FC
7FFFFE
7C7F3E
FC3E1F
F83E1F
F83FFF
F83FFF
F83FFF
FC3E00
7C7F03
7FFFFF
1FFFFF
0FE1FE
ENDCHAR
STARTCHAR Ydieresis
ENCODING -1
SWIDTH 42 0
DWIDTH 19 0
BBX 17 23 1 0
BITMAP
073800
073800
073800
000000
FC0780
7C0700
7E0F00
3E0E00
3F1C00
1F1C00
1FB800
0FF800
0FF000
07F000
03E000
03E000
03E000
03E000
03E000
03E000
03E000
03E000
03E000
ENDCHAR
STARTCHAR dotlessi
ENCODING -1
SWIDTH 42 0
DWIDTH 9 0
BBX 5 14 2 0
BITMAP
F8
F8
F8
F8
F8
F8
F8
F8
F8
F8
F8
F8
F8
F8
ENDCHAR
STARTCHAR lslash
ENCODING -1
SWIDTH 42 0
DWIDTH 9 0
BBX 11 20 0 0
BITMAP
1F00
1F00
1F00
1F00
1F00
1F00
1F20
1FE0
1FE0
1FC0
7F00
FF00
FF00
DF00
1F00
1F00
1F00
1F00
1F00
1F00
ENDCHAR
STARTCHAR Lslash
ENCODING -1
SWIDTH 42 0
DWIDTH 16 0
BBX 16 19 0 0
BITMAP
1F00
1F00
1F00
1F00
1F00
1F20
1FE0
1FE0
1FC0
3F00
FF00
FF00
FF00
9F00
1F00
1F00
1FFF
1FFF
1FFF
ENDCHAR
STARTCHAR daggerdbl
ENCODING -1
SWIDTH 42 0
DWIDTH 18 0
BBX 14 23 2 -4
BITMAP
0780
0780
0780
0780
0780
0780
FFFC
FFFC
FFFC
0780
0780
0780
0780
0780
FFFC
FFFC
FFFC
0780
0780
0780
0780
0780
0780
ENDCHAR
STARTCHAR fi
ENCODING -1
SWIDTH 42 0
DWIDTH 18 0
BBX 16 20 0 0
BITMAP
07F0
1FF0
1FF0
3E00
3E00
3E00
FFFF
FFFF
FFFF
3E1F
3E1F
3E1F
3E1F
3E1F
3E1F
3E1F
3E1F
3E1F
3E1F
3E1F
ENDCHAR
STARTCHAR guilsinglright
ENCODING -1
SWIDTH 42 0
DWIDTH 9 0
BBX 8 12 1 1
BITMAP
20
E0
70
78
3C
1E
1F
3C
78
70
E0
40
ENDCHAR
STARTCHAR OE
ENCODING -1
SWIDTH 42 0
DWIDTH 29 0
BBX 26 19 1 0
BITMAP
03FFFF80
0FFFFF80
1FFFFF80
3F0FC000
7E07C000
7C07C000
F807C000
F807C000
F807FF00
F807FF00
F807FF00
F807C000
F807C000
7C07C000
7E07C000
3F0FC000
1FFFFFC0
0FFFFFC0
03FFFFC0
ENDCHAR
STARTCHAR emdash
ENCODING -1
SWIDTH 42 0
DWIDTH 26 0
BBX 24 2 1 7
BITMAP
FFFFFF
FFFFFF
ENDCHAR
STARTCHAR caron
ENCODING -1
SWIDTH 42 0
DWIDTH 18 0
BBX 9 3 4 17
BITMAP
E380
7F00
3E00
ENDCHAR
STARTCHAR ogonek
ENCODING -1
SWIDTH 42 0
DWIDTH 18 0
BBX 5 3 6 -4
BITMAP
70
E0
78
ENDCHAR
STARTCHAR hungarumlaut
ENCODING -1
SWIDTH 42 0
DWIDTH 18 0
BBX 10 3 5 17
BITMAP
3DC0
7300
EE00
ENDCHAR
STARTCHAR guilsinglleft
ENCODING -1
SWIDTH 42 0
DWIDTH 9 0
BBX 8 12 1 1
BITMAP
02
07
0E
1E
3C
F8
78
3C
1E
0E
07
04
ENDCHAR
STARTCHAR dotaccent
ENCODING -1
SWIDTH 42 0
DWIDTH 18 0
BBX 4 3 7 17
BITMAP
F0
F0
F0
ENDCHAR
STARTCHAR breve
ENCODING -1
SWIDTH 42 0
DWIDTH 18 0
BBX 9 3 4 17
BITMAP
E380
7F00
3E00
ENDCHAR
STARTCHAR bullet
ENCODING -1
SWIDTH 42 0
DWIDTH 18 0
BBX 10 10 4 3
BITMAP
FFC0
FFC0
FFC0
FFC0
FFC0
FFC0
FFC0
FFC0
FFC0
FFC0
ENDCHAR
STARTCHAR tilde
ENCODING -1
SWIDTH 42 0
DWIDTH 18 0
BBX 9 3 4 17
BITMAP
7B80
FF80
EF00
ENDCHAR
STARTCHAR circumflex
ENCODING -1
SWIDTH 42 0
DWIDTH 18 0
BBX 9 3 4 17
BITMAP
3E00
7F00
E380
ENDCHAR
STARTCHAR quotedblleft
ENCODING -1
SWIDTH 42 0
DWIDTH 14 0
BBX 12 9 1 11
BITMAP
1830
78F0
70E0
E1C0
F9F0
F9F0
F9F0
F9F0
F9F0
ENDCHAR
STARTCHAR quotesingle
ENCODING -1
SWIDTH 42 0
DWIDTH 7 0
BBX 5 9 1 11
BITMAP
F8
F8
F8
F8
F8
70
70
70
70
ENDCHAR
STARTCHAR scaron
ENCODING -1
SWIDTH 42 0
DWIDTH 16 0
BBX 13 18 2 0
BITMAP
38E0
1FC0
0F80
0000
1FE0
7FF0
FFF0
F830
F800
FF00
7FC0
1FF0
07F8
01F8
C0F8
FFF0
FFF0
7FC0
ENDCHAR
STARTCHAR ring
ENCODING -1
SWIDTH 42 0
DWIDTH 18 0
BBX 4 4 6 16
BITMAP
60
90
90
60
ENDCHAR
STARTCHAR quotesinglbase
ENCODING -1
SWIDTH 42 0
DWIDTH 7 0
BBX 5 9 1 -4
BITMAP
F8
F8
F8
F8
F8
38
70
F0
C0
ENDCHAR
STARTCHAR florin
ENCODING -1
SWIDTH 42 0
DWIDTH 18 0
BBX 14 23 3 -4
BITMAP
00FC
03FC
07FC
0780
0F80
0F00
1F00
1F00
7FC0
7FC0
7FC0
3E00
3E00
3E00
3E00
7C00
7C00
7C00
7C00
7C00
F800
F800
F800
ENDCHAR
STARTCHAR trademark
ENCODING -1
SWIDTH 42 0
DWIDTH 23 0
BBX 23 10 0 9
BITMAP
FFEF1E
FFEFBE
FFEFBE
1F0FBE
1F0FFE
1F0FFE
1F0FFE
1F0FFE
1F0EBE
1F0E3E
ENDCHAR
STARTCHAR fraction
ENCODING -1
SWIDTH 42 0
DWIDTH 2 0
BBX 18 19 -7 0
BITMAP
0003C0
000780
000F00
000E00
001E00
003C00
007800
007000
00F000
01E000
03C000
038000
078000
0F0000
1E0000
1C0000
3C0000
780000
F00000
ENDCHAR
STARTCHAR grave
ENCODING -1
SWIDTH 42 0
DWIDTH 18 0
BBX 7 3 4 17
BITMAP
F8
3C
1E
ENDCHAR
STARTCHAR perthousand
ENCODING -1
SWIDTH 42 0
DWIDTH 34 0
BBX 33 19 1 0
BITMAP
3E00F00000
7F01E00000
7F01C00000
E783C00000
E387800000
E38F000000
E78E000000
7F1E000000
7F3C000000
3E78000000
0071E03E00
00E7F87F00
01EFFCFF80
03CF3CE380
078E1CE380
070F3CE380
0F0FFCFF80
1E07F87F00
3C01E03E00
ENDCHAR
STARTCHAR ellipsis
ENCODING -1
SWIDTH 42 0
DWIDTH 26 0
BBX 20 3 3 0
BITMAP
E0E070
E0E070
E0E070
ENDCHAR
STARTCHAR quotedblright
ENCODING -1
SWIDTH 42 0
DWIDTH 14 0
BBX 12 9 1 11
BITMAP
F9F0
F9F0
F9F0
F9F0
F9F0
3870
70E0
F1E0
C180
ENDCHAR
STARTCHAR Scaron
ENCODING -1
SWIDTH 42 0
DWIDTH 15 0
BBX 14 23 1 0
BITMAP
1C70
0FE0
07C0
0000
0FF8
3FF8
7FF8
FC18
F800
FC00
FE00
7F80
7FE0
3FF0
0FF8
03FC
00FC
007C
007C
C0FC
FFF8
FFF0
FFC0
ENDCHAR
STARTCHAR quotedblbase
ENCODING -1
SWIDTH 42 0
DWIDTH 14 0
BBX 12 9 1 -4
BITMAP
F9F0
F9F0
F9F0
F9F0
F9F0
3870
70E0
F1E0
C180
ENDCHAR
STARTCHAR zcaron
ENCODING -1
SWIDTH 42 0
DWIDTH 16 0
BBX 13 18 2 0
BITMAP
38E0
1FC0
0F80
0000
FFF8
FFF8
FFF8
03F8
07F0
0FE0
0FC0
1F80
3F00
7F00
FE00
FFF8
FFF8
FFF8
ENDCHAR
ENDFONT
